<?xml version="1.0" encoding="UTF-8" standalone="no"?>
<!-- Created with Inkscape (http://www.inkscape.org/) -->

<svg
   width="87.272568mm"
   height="79.039673mm"
   viewBox="0 0 87.272569 79.039672"
   version="1.1"
   id="svg1"
   xmlSpace="preserve"
   inkscapeVersion="1.3 (0e150ed6c4, 2023-07-21)"
   sodipodiDocname="zenithLogoSVG.svg"
   xmlnsInkscape="http://www.inkscape.org/namespaces/inkscape"
   xmlnsSodipodi="http://sodipodi.sourceforge.net/DTD/sodipodi-0.dtd"
   xmlns="http://www.w3.org/2000/svg"  opacity="0.4"
   xmlnsSvg="http://www.w3.org/2000/svg"><sodipodinamedview
     id="namedview1"
     pagecolor="#ffffff"
     bordercolor="#000000"
     borderopacity="0.25"
     inkscapeShowpageshadow="2"
     inkscapePageopacity="0.0"
     inkscapePagecheckerboard="0"
     inkscapeDeskcolor="#d1d1d1"
     inkscapeDocument-units="mm"
     inkscapeZoom="0.73139029"
     inkscapeCx="609.11391"
     inkscapeCy="594.07406"
     inkscapeWindow-width="1920"
     inkscapeWindow-height="1017"
     inkscapeWindow-x="-8"
     inkscapeWindow-y="-8"
     inkscapeWindow-maximized="1"
     inkscapeCurrent-layer="layer3" /><defs
     id="defs1" /><g
     inkscapeGroupmode="layer"
     id="layer2"
     inkscapeLabel="Logo"
     style="display:inline"
     transform="translate(-72.848023,-94.606287)"><path
       style="fill:#3bcefa;fill-opacity:1;fill-rule:evenodd;stroke:#3bcffb;stroke-width:0.365;stroke-linecap:round;stroke-linejoin:round;stroke-dasharray:none;stroke-opacity:0.996078;paint-order:stroke fill markers"
       d="m 76.228005,122.14387 c 6.055269,-0.32067 16.773257,0.58218 27.498355,0.63949 4.76072,-3.14771 10.54841,-5.07591 18.03381,-4.98807 25.00302,4.82469 9.90456,34.70803 -3.45329,36.19551 -15.19607,-0.45425 -33.427425,1.31244 -42.206774,-3.83698 0.250787,-2.57591 0.839416,-5.69438 2.279577,-9.79948 1.036577,0.39734 1.266259,0.25082 1.918491,0.1279 1.041559,-0.49761 1.266158,-1.47471 2.580596,-0.94406 2.149668,0.89463 0.896094,2.10623 0.895295,3.06958 -0.0739,1.03255 1.252318,0.92344 2.302189,0.5116 0.732714,-1.13144 1.501284,-2.21267 3.069585,-2.17429 1.522201,0.10476 1.43421,2.02098 1.662689,3.58118 1.797705,1.01876 1.85844,0.74504 2.317706,0.24095 0.825829,-1.53002 1.152218,-1.91797 2.286671,-2.28734 1.378347,0.57707 2.415224,1.42731 2.941685,2.68589 l 14.32473,0.3837 c 3.24075,-0.1384 3.70983,-0.66936 4.73227,-1.6627 -0.0672,-1.67043 0.0413,-3.17132 -5.11597,-4.73227 l -11.51094,-3.06958 -1.918491,-2.55799 c -1.474528,1.27163 -3.17329,2.09478 -4.988076,2.68589 -2.951454,-0.96319 -5.013283,-2.538 -5.243872,-5.37178 -1.50277,1.25834 -2.613436,2.96958 -4.732277,3.45328 -3.167706,-0.53494 -4.645505,-2.63751 -6.826626,-4.65233 -1.285863,0.43308 -2.590856,0.75137 -4.044817,0.17586 0.431596,-3.01101 0.479086,-6.29638 3.197484,-7.67396 z"
       id="path1"
       sodipodiNodetypes="cccccccccccccccccccccccccc" /><path
       style="fill:#ffffff;fill-opacity:1;fill-rule:evenodd;stroke:#ffffff;stroke-width:0.365001;stroke-linecap:round;stroke-linejoin:round;stroke-dasharray:none;stroke-opacity:0.996078;paint-order:stroke fill markers"
       d="m 106.23231,123.56907 c -1.25506,1.12087 -1.13518,1.92998 -1.33009,2.79811 -0.18574,1.34571 0.47059,3.92555 2.53227,3.93917 1.17364,-0.0452 2.07807,-1.9852 1.89921,-4.4818 -0.27587,-1.95105 -1.46745,-3.23058 -3.10139,-2.25548 z"
       id="path2"
       sodipodiNodetypes="ccccc" /><path
       style="fill:none;fill-opacity:1;fill-rule:evenodd;stroke:#ffffff;stroke-width:2;stroke-linecap:round;stroke-linejoin:round;stroke-dasharray:none;stroke-opacity:0.996078;paint-order:stroke fill markers"
       d="m 117.11784,120.82582 c -7.23338,4.64936 -6.80924,9.00017 0.13566,12.61617 4.50705,2.35819 7.29995,1.08572 10.9353,-1.74254 3.7461,-4.68544 1.0545,-7.28282 0.69248,-8.06095 -1.16313,-1.67164 -4.7949,-4.10482 -7.55029,-2.2778 -3.39678,2.42559 -2.87981,5.05155 -1.74482,6.11556 2.20776,2.03378 4.74117,1.3256 5.72826,0.095 0.81598,-1.14854 0.32208,-2.76027 -1.88141,-2.93604"
       id="path3"
       sodipodiNodetypes="cccccccc" /><path
       style="fill:#3bcefa;fill-opacity:1;fill-rule:evenodd;stroke:#3bcffb;stroke-width:0.365;stroke-linecap:round;stroke-linejoin:round;stroke-dasharray:none;stroke-opacity:0.996078;paint-order:stroke fill markers"
       d="m 90.076736,106.58176 c 2.816917,0.59499 5.66927,2.57205 8.546436,5.51675 2.448808,2.35667 4.436738,4.54576 5.561968,6.42113 -0.83051,0.88465 -2.57613,1.51193 -5.335871,1.85399 -3.250512,0.24184 -5.881635,-1.07626 -7.506396,-4.9289 0.246071,-1.22259 0.594062,-2.36237 -0.09044,-4.34105 -0.757346,-1.79966 -2.365255,-4.27978 -1.175697,-4.52192 z"
       id="path4"
       sodipodiNodetypes="ccccccc" /><path
       style="fill:#3bcefa;fill-opacity:1;fill-rule:evenodd;stroke:#ffffff;stroke-width:0.365;stroke-linecap:round;stroke-linejoin:round;stroke-dasharray:none;stroke-opacity:1;paint-order:stroke fill markers"
       d="m 105.94869,116.98219 7.77771,-2.17053 c 0.52666,-1.19184 -0.38847,-2.4798 -1.08526,-3.7532 -1.64075,-2.95403 -0.35472,-6.46553 -0.40698,-9.72213 -2.61392,-3.25738 -5.09783,-6.681326 -10.36163,-6.54355 0.33073,4.258593 -0.7269,8.12669 -2.390193,11.96986 1.230513,4.15803 3.919593,7.13097 6.466353,10.21955 z"
       id="path5"
       sodipodiNodetypes="ccccccc" /><path
       style="fill:#3bcefa;fill-opacity:1;fill-rule:evenodd;stroke:#ffffff;stroke-width:0.365;stroke-linecap:round;stroke-linejoin:round;stroke-dasharray:none;stroke-opacity:1;paint-order:stroke fill markers"
       d="m 117.57003,114.35947 c -2.06963,-0.35057 -2.73914,-2.56796 -3.301,-4.9289 1.60865,-4.58222 3.44189,-9.16443 5.56197,-13.746649 1.51898,0.866463 2.81751,2.639212 3.57232,6.647229 l -2.48706,11.62134 z"
       id="path6"
       sodipodiNodetypes="cccccc" /><path
       style="fill:#3bcefa;fill-opacity:1;fill-rule:evenodd;stroke:#3bcffb;stroke-width:0.365001;stroke-linecap:round;stroke-linejoin:round;stroke-dasharray:none;stroke-opacity:0.996078;paint-order:stroke fill markers"
       d="m 122.33572,114.02226 c 0.84703,1.37299 2.05438,0.82425 3.13353,0.95924 3.24658,-2.53479 7.72955,-3.89501 9.46455,-7.8658 -0.15393,-2.43009 -0.4769,-4.86018 -1.72664,-7.290267 -2.24595,1.204157 -3.97557,1.995257 -5.81942,2.877737 -1.52949,4.39108 -3.26941,7.94049 -5.05202,11.31909 z"
       id="path7"
       sodipodiNodetypes="cccccc" /><path
       style="fill:#3bcefa;fill-opacity:1;fill-rule:evenodd;stroke:#3bcffb;stroke-width:0.365001;stroke-linecap:round;stroke-linejoin:round;stroke-dasharray:none;stroke-opacity:0.996078;paint-order:stroke fill markers"
       d="m 130.32943,116.0047 c 2.90759,2.01916 4.76438,4.36165 6.58681,6.71471 3.91064,-2.08422 7.02337,-4.37842 12.40624,-6.07521 0.80575,-1.57175 1.63445,-3.13584 2.94168,-4.54043 -0.0844,-1.83196 -0.22899,-3.75414 -1.15109,-6.84262 -2.58878,-1.28576 -6.00614,-1.56539 -9.7843,-1.40689 l -2.81379,1.53479 -3.19748,5.30783 c -3.40594,2.83223 -5.07804,4.60724 -4.98807,5.30782 z"
       id="path8"
       sodipodiNodetypes="ccccccccc" /><path
       style="fill:#3bcefa;fill-opacity:1;fill-rule:evenodd;stroke:#3bcffb;stroke-width:0.365001;stroke-linecap:round;stroke-linejoin:round;stroke-dasharray:none;stroke-opacity:0.996078;paint-order:stroke fill markers"
       d="m 136.66044,125.2774 c 1.31627,1.96648 1.83634,4.88903 1.98244,8.02569 l 1.91849,0.15987 c 2.5765,-1.20859 5.5388,-1.83848 8.44136,-2.55799 l 5.88337,-1.27899 c 1.65327,-1.23439 3.3148,-2.52655 5.05202,-4.34858 -2.1298,0.26908 -4.03999,-1.12315 -6.01127,-1.59874 -1.45569,-1.02289 -2.87627,-2.05855 -5.24387,-2.74984 -3.86837,-0.15065 -8.0028,2.75846 -12.02254,4.34858 z"
       id="path9"
       sodipodiNodetypes="ccccccccc" /><path
       style="fill:#3bcefa;fill-opacity:1;fill-rule:evenodd;stroke:#3bcffb;stroke-width:0.365001;stroke-linecap:round;stroke-linejoin:round;stroke-dasharray:none;stroke-opacity:0.996078;paint-order:stroke fill markers"
       d="m 139.66608,135.5733 c -2.03486,1.26431 -2.39047,5.0475 -3.51723,7.67396 l 4.02882,2.23824 c 3.27938,1.26273 6.03365,3.31313 10.74355,2.43008 2.78716,-2.95177 5.09772,-5.53284 8.56925,-9.0169 -1.7934,-1.35864 -3.64415,-2.60259 -5.69152,-3.45328 -1.69361,-0.3645 -4.00357,0.50371 -6.01127,0.7674 -2.60125,0.0517 -5.35232,-0.27113 -8.1216,-0.6395 z"
       id="path10"
       sodipodiNodetypes="cccccccc" /><path
       style="fill:#3bcefa;fill-opacity:1;fill-rule:evenodd;stroke:#3bcffb;stroke-width:0.365001;stroke-linecap:round;stroke-linejoin:round;stroke-dasharray:none;stroke-opacity:0.996078;paint-order:stroke fill markers"
       d="m 135.4454,145.6134 c -0.99929,0.46342 -2.80062,2.64549 -4.34858,4.28462 l 4.34858,5.49968 c 2.17551,1.13855 3.6396,2.13481 5.43572,3.19748 l 7.92976,-1.98244 c -1.50527,-1.62826 -2.1699,-4.09716 -3.13353,-6.26707 -0.27952,-0.85464 -1.83065,-1.81525 -3.06959,-2.74984 -2.34522,-0.68896 -4.36191,-1.59695 -7.16236,-1.98243 z"
       id="path11"
       sodipodiNodetypes="cccccccc" /><path
       style="fill:#3bcefa;fill-opacity:1;fill-rule:evenodd;stroke:#3bcffb;stroke-width:0.365001;stroke-linecap:round;stroke-linejoin:round;stroke-dasharray:none;stroke-opacity:0.996078;paint-order:stroke fill markers"
       d="m 128.60278,153.67105 c -1.34294,0.78063 -2.68589,1.67776 -4.02883,3.13354 1.22037,2.09971 2.50035,3.8417 3.64513,6.39496 0.61704,2.35269 0.58907,5.13538 2.36614,6.71472 3.91113,-0.007 7.70439,0.81021 11.76674,-0.2558 -1.22411,-2.18845 -1.71635,-5.987 -2.55798,-9.0169 -3.5581,-1.86405 -7.38579,-4.44698 -11.1912,-6.97052 z"
       id="path12"
       sodipodiNodetypes="ccccccc" /><path
       style="fill:#3bcefa;fill-opacity:1;fill-rule:evenodd;stroke:#3bcffb;stroke-width:0.365001;stroke-linecap:round;stroke-linejoin:round;stroke-dasharray:none;stroke-opacity:0.996078;paint-order:stroke fill markers"
       d="m 112.87116,157.89173 7.22632,-0.31975 c 3.38911,1.93375 4.38957,5.25445 5.17992,8.69716 l -1.15109,3.26143 c 1.45968,1.07986 1.13918,2.20184 1.21504,3.93291 -3.07315,-2.47336 -7.1596,-1.95037 -10.67959,-5.53165 0.33014,-1.70532 -0.0154,-3.41065 -0.2558,-5.11597 -0.70743,-1.73353 -2.14256,-3.80951 -1.5348,-4.92413 z"
       id="path13"
       sodipodiNodetypes="cccccccc" /><path
       style="fill:#3bcefa;fill-opacity:1;fill-rule:evenodd;stroke:#3bcffb;stroke-width:0.365001;stroke-linecap:round;stroke-linejoin:round;stroke-dasharray:none;stroke-opacity:0.996078;paint-order:stroke fill markers"
       d="m 101.87182,158.46728 c 2.28,-1.09582 4.73223,-0.46941 7.09841,-0.70345 1.76089,2.06483 0.82918,6.34349 -0.57554,8.7611 -4.78602,1.19883 -7.05802,3.54276 -10.136024,5.5956 1.13079,-4.714 2.627044,-11.17738 3.613154,-13.65325 z"
       id="path14"
       sodipodiNodetypes="ccccc" /><path
       style="fill:#3bcefa;fill-opacity:1;fill-rule:evenodd;stroke:#3bcffb;stroke-width:0.365001;stroke-linecap:round;stroke-linejoin:round;stroke-dasharray:none;stroke-opacity:0.996078;paint-order:stroke fill markers"
       d="m 88.442391,157.25223 c 3.2188,0.41829 6.4376,0.51956 9.6564,0.2558 -0.27792,1.68819 -1.36526,3.06522 -2.494036,4.66833 -1.058682,2.08129 -1.425136,3.58572 -2.014416,5.27585 -1.4815,1.1256 -2.707201,1.05565 -4.188701,0.95924 l -1.374921,-3.83698 c -0.119186,-1.29779 -0.47055,-2.77936 -0.991218,-3.99685 0.547495,-0.91214 1.029714,-1.98746 1.406892,-3.32539 z"
       id="path15"
       sodipodiNodetypes="cccccccc" /></g></svg>
