<?xml version="1.0" encoding="UTF-8" standalone="no"?>
<!-- Created with Inkscape (http://www.inkscape.org/) -->

<svg
   width="181.37054mm"
   height="49.737606mm"
   viewBox="0 0 181.37054 49.737606"
   version="1.1"
   id="svg1"
   xmlSpace="preserve"
   inkscapeVersion="1.3 (0e150ed6c4, 2023-07-21)"
   sodipodiDocname="ZenithLogoBase.svg"
   inkscapeExport-filename="ZenithTextoBase.svg"
   inkscapeExport-xdpi="96"
   inkscapeExport-ydpi="96"
   xmlnsInkscape="http://www.inkscape.org/namespaces/inkscape"
   xmlnsSodipodi="http://sodipodi.sourceforge.net/DTD/sodipodi-0.dtd"
   xmlns="http://www.w3.org/2000/svg"
   xmlnsSvg="http://www.w3.org/2000/svg"><sodipodinamedview
     id="namedview1"
     pagecolor="#ffffff"
     bordercolor="#000000"
     borderopacity="0.25"
     inkscapeShowpageshadow="2"
     inkscapePageopacity="0.0"
     inkscapePagecheckerboard="0"
     inkscapeDeskcolor="#d1d1d1"
     inkscapeDocument-units="mm"
     inkscapeZoom="0.73139029"
     inkscapeCx="606.37939"
     inkscapeCy="595.44132"
     inkscapeWindow-width="1920"
     inkscapeWindow-height="1017"
     inkscapeWindow-x="-8"
     inkscapeWindow-y="-8"
     inkscapeWindow-maximized="1"
     inkscapeCurrent-layer="layer3" /><defs
     id="defs1" /><g
     inkscapeGroupmode="layer"
     id="layer3"
     inkscapeLabel="Fondo"
     style="display:inline;stroke-width:0.722497"
     transform="matrix(1.9157033,0,0,1,-23.985022,-99.67085)"><text
       xmlSpace="preserve"
       style="font-style:normal;font-variant:normal;font-weight:normal;font-stretch:normal;font-size:33.1345px;font-family:'Maiandra GD';-inkscape-font-specification:'Maiandra GD';fill:#3bcffb;fill-opacity:0.996078;fill-rule:evenodd;stroke:#ffffff;stroke-width:0.263712;stroke-linecap:round;stroke-linejoin:round;stroke-dasharray:none;stroke-opacity:1;paint-order:stroke fill markers"
       x="58.265697"
       y="102.19412"
       id="text15"
       transform="scale(0.72249673,1.3840893)"><tspan
         sodipodiRole="line"
         id="tspan15"
         style="font-style:normal;font-variant:normal;font-weight:normal;font-stretch:normal;font-size:33.1345px;font-family:'Maiandra GD';-inkscape-font-specification:'Maiandra GD';fill:#3bcffb;fill-opacity:0.996078;stroke-width:0.263711"
         x="58.265697"
         y="102.19412">Zenith</tspan></text></g><g
     inkscapeGroupmode="layer"
     id="layer2"
     inkscapeLabel="Logo"
     style="display:inline"
     transform="translate(-15.329135,-99.67085)"><path
       style="fill:#3bcffb;fill-opacity:0.996078;fill-rule:evenodd;stroke:#3bcffb;stroke-width:0.365;stroke-linecap:round;stroke-linejoin:round;stroke-dasharray:none;stroke-opacity:0.996078;paint-order:stroke fill markers"
       d="m 17.518749,117.02014 c 3.800996,-0.20124 10.52886,0.36535 17.261187,0.40131 2.988385,-1.97536 6.621417,-3.18541 11.32013,-3.13029 15.694823,3.02776 6.217262,21.78117 -2.167689,22.71465 -9.538832,-0.28507 -20.982965,0.82363 -26.493912,-2.40791 0.157423,-1.61653 0.526915,-3.57354 1.430929,-6.14971 0.650677,0.24935 0.794853,0.1574 1.20427,0.0803 0.653804,-0.31228 0.794789,-0.92546 1.619884,-0.59245 1.349383,0.56143 0.562493,1.32177 0.561992,1.92632 -0.04639,0.64799 0.786101,0.57951 1.445123,0.32106 0.459937,-0.71004 0.942382,-1.38857 1.926831,-1.36448 0.955512,0.0657 0.900278,1.26827 1.043698,2.24738 1.12845,0.63933 1.166575,0.46755 1.454864,0.15121 0.518387,-0.96017 0.723267,-1.20363 1.435382,-1.43543 0.865212,0.36214 1.516078,0.89572 1.846546,1.68554 l 8.991878,0.24079 c 2.034274,-0.0868 2.328723,-0.42005 2.970526,-1.04343 -0.04218,-1.04828 0.02593,-1.99017 -3.211381,-2.96976 l -7.225614,-1.92632 -1.204269,-1.60528 c -0.925587,0.79802 -1.991929,1.31459 -3.131101,1.68554 -1.852678,-0.60445 -3.146923,-1.59273 -3.291668,-3.37108 -0.943314,0.78967 -1.640498,1.86357 -2.970531,2.16712 -1.988423,-0.33571 -2.916063,-1.65518 -4.285189,-2.91959 -0.807159,0.27178 -1.626325,0.47152 -2.539001,0.11036 0.27092,-1.88957 0.30073,-3.95132 2.007115,-4.81582 z"
       id="path1"
       sodipodiNodetypes="cccccccccccccccccccccccccc" /><path
       style="fill:none;fill-opacity:0.996078;fill-rule:evenodd;stroke:#ffffff;stroke-width:2;stroke-linecap:round;stroke-linejoin:round;stroke-dasharray:none;stroke-opacity:0.996078;paint-order:stroke fill markers"
       d="m 43.185997,116.19299 c -4.540517,2.91772 -4.274277,5.64809 0.08516,7.91733 2.829152,1.47989 4.582303,0.68135 6.864274,-1.09354 2.351491,-2.94037 0.661928,-4.57036 0.434682,-5.05868 -0.730117,-1.04905 -3.009841,-2.576 -4.739446,-1.42945 -2.132217,1.52219 -1.807706,3.17013 -1.095254,3.83785 1.385849,1.27631 2.976114,0.83188 3.595727,0.0596 0.512205,-0.72077 0.202175,-1.73222 -1.180993,-1.84253"
       id="path3"
       sodipodiNodetypes="cccccccc" /><path
       style="fill:#3bcffb;fill-opacity:0.996078;fill-rule:evenodd;stroke:#3bcffb;stroke-width:0.365;stroke-linecap:round;stroke-linejoin:round;stroke-dasharray:none;stroke-opacity:0.996078;paint-order:stroke fill markers"
       d="m 26.211834,107.25406 c 1.768227,0.37339 3.558698,1.61411 5.364744,3.46206 1.537158,1.47894 2.785016,2.85272 3.491342,4.02961 -0.521325,0.55517 -1.617081,0.94882 -3.349417,1.16348 -2.040402,0.15177 -3.692003,-0.67541 -4.711893,-3.09315 0.154463,-0.76724 0.372903,-1.48252 -0.05677,-2.72425 -0.475399,-1.12938 -1.484711,-2.68579 -0.738005,-2.83775 z"
       id="path4"
       sodipodiNodetypes="ccccccc" /><path
       style="fill:#3bcffb;fill-opacity:0.996078;fill-rule:evenodd;stroke:#3bcffb;stroke-width:0.365;stroke-linecap:round;stroke-linejoin:round;stroke-dasharray:none;stroke-opacity:0.996078;paint-order:stroke fill markers"
       d="m 36.17493,113.7809 4.882202,-1.36213 c 0.330593,-0.74794 -0.243849,-1.55621 -0.681236,-2.35533 -1.029927,-1.85382 -0.222664,-4.05747 -0.255469,-6.10117 -1.640802,-2.04418 -3.199995,-4.192891 -6.504172,-4.106429 0.207605,2.672499 -0.456287,5.099939 -1.500365,7.511739 0.772414,2.60939 2.460396,4.47507 4.05904,6.41332 z"
       id="path5"
       sodipodiNodetypes="ccccccc" /><path
       style="fill:#3bcffb;fill-opacity:0.996078;fill-rule:evenodd;stroke:#3bcffb;stroke-width:0.365;stroke-linecap:round;stroke-linejoin:round;stroke-dasharray:none;stroke-opacity:0.996078;paint-order:stroke fill markers"
       d="m 43.469844,112.135 c -1.299142,-0.22 -1.719405,-1.61153 -2.072094,-3.09315 1.009777,-2.87559 2.160533,-5.75118 3.491343,-8.62677 0.95349,0.54375 1.7686,1.65625 2.242407,4.1715 l -1.56117,7.29302 z"
       id="path6"
       sodipodiNodetypes="cccccc" /><path
       style="fill:#3bcffb;fill-opacity:0.996078;fill-rule:evenodd;stroke:#3bcffb;stroke-width:0.365001;stroke-linecap:round;stroke-linejoin:round;stroke-dasharray:none;stroke-opacity:0.996078;paint-order:stroke fill markers"
       d="m 46.461349,111.92338 c 0.531695,0.86163 1.289569,0.51726 1.96697,0.60198 2.037934,-1.59072 4.851971,-2.44433 5.94106,-4.93622 -0.09662,-1.52501 -0.299359,-3.05003 -1.083842,-4.57504 -1.409821,0.75568 -2.495533,1.25214 -3.652949,1.80594 -0.960087,2.75564 -2.052264,4.98309 -3.171239,7.10334 z"
       id="path7"
       sodipodiNodetypes="cccccc" /><path
       style="fill:#3bcffb;fill-opacity:0.996078;fill-rule:evenodd;stroke:#3bcffb;stroke-width:0.365001;stroke-linecap:round;stroke-linejoin:round;stroke-dasharray:none;stroke-opacity:0.996078;paint-order:stroke fill markers"
       d="m 51.479137,113.16747 c 1.825144,1.26713 2.990683,2.73718 4.134653,4.21385 2.454776,-1.30796 4.408689,-2.7477 7.787609,-3.81253 0.505783,-0.98636 1.025972,-1.96791 1.846543,-2.84936 -0.05298,-1.14966 -0.143741,-2.35593 -0.722559,-4.29412 -1.625022,-0.80688 -3.770157,-0.98237 -6.141772,-0.8829 l -1.766264,0.96316 -2.007113,3.33096 c -2.137967,1.77737 -3.187573,2.89129 -3.131097,3.33094 z"
       id="path8"
       sodipodiNodetypes="ccccccccc" /><path
       style="fill:#3bcffb;fill-opacity:0.996078;fill-rule:evenodd;stroke:#3bcffb;stroke-width:0.365001;stroke-linecap:round;stroke-linejoin:round;stroke-dasharray:none;stroke-opacity:0.996078;paint-order:stroke fill markers"
       d="m 55.45322,118.9866 c 0.826245,1.23407 1.152702,3.06813 1.244412,5.03655 l 1.204268,0.10033 c 1.617314,-0.75846 3.4768,-1.15375 5.298786,-1.60528 l 3.693091,-0.80264 c 1.037786,-0.77464 2.080756,-1.58554 3.171239,-2.72896 -1.336912,0.16886 -2.535971,-0.70484 -3.773376,-1.0033 -0.913761,-0.64192 -1.805483,-1.29185 -3.291666,-1.72567 -2.428242,-0.0945 -5.023494,1.73108 -7.546754,2.72897 z"
       id="path9"
       sodipodiNodetypes="ccccccccc" /><path
       style="fill:#3bcffb;fill-opacity:0.996078;fill-rule:evenodd;stroke:#3bcffb;stroke-width:0.365001;stroke-linecap:round;stroke-linejoin:round;stroke-dasharray:none;stroke-opacity:0.996078;paint-order:stroke fill markers"
       d="m 57.339912,125.44783 c -1.277317,0.79342 -1.500539,3.16758 -2.207826,4.81583 l 2.528959,1.40461 c 2.058523,0.79243 3.787426,2.07917 6.74391,1.52501 1.749548,-1.8524 3.199925,-3.47216 5.379063,-5.65859 -1.125747,-0.85262 -2.287495,-1.63327 -3.572663,-2.16712 -1.063107,-0.22875 -2.513109,0.3161 -3.773376,0.48158 -1.632849,0.0324 -3.359743,-0.17015 -5.098067,-0.40132 z"
       id="path10"
       sodipodiNodetypes="cccccccc" /><path
       style="fill:#3bcffb;fill-opacity:0.996078;fill-rule:evenodd;stroke:#3bcffb;stroke-width:0.365001;stroke-linecap:round;stroke-linejoin:round;stroke-dasharray:none;stroke-opacity:0.996078;paint-order:stroke fill markers"
       d="m 54.690519,131.74854 c -0.627272,0.29082 -1.757997,1.66019 -2.729678,2.68883 l 2.729678,3.45134 c 1.365605,0.71451 2.284639,1.33971 3.412094,2.0066 l 4.977646,-1.24409 c -0.944884,-1.02182 -1.362084,-2.57119 -1.966971,-3.93293 -0.175459,-0.53633 -1.14913,-1.13917 -1.926834,-1.72567 -1.472134,-0.43236 -2.738045,-1.00217 -4.495935,-1.24408 z"
       id="path11"
       sodipodiNodetypes="cccccccc" /><path
       style="fill:#3bcffb;fill-opacity:0.996078;fill-rule:evenodd;stroke:#3bcffb;stroke-width:0.365001;stroke-linecap:round;stroke-linejoin:round;stroke-dasharray:none;stroke-opacity:0.996078;paint-order:stroke fill markers"
       d="m 50.395289,136.80515 c -0.842986,0.48989 -1.685979,1.05288 -2.528965,1.96646 0.766047,1.31769 1.569512,2.41088 2.28811,4.01319 0.387327,1.47644 0.36977,3.22273 1.485267,4.21385 2.455083,-0.004 4.836177,0.50845 7.386183,-0.16053 -0.768394,-1.37337 -1.077382,-3.75717 -1.605687,-5.65859 -2.23348,-1.16979 -4.636187,-2.79072 -7.024908,-4.37438 z"
       id="path12"
       sodipodiNodetypes="ccccccc" /><path
       style="fill:#3bcffb;fill-opacity:0.996078;fill-rule:evenodd;stroke:#3bcffb;stroke-width:0.365001;stroke-linecap:round;stroke-linejoin:round;stroke-dasharray:none;stroke-opacity:0.996078;paint-order:stroke fill markers"
       d="m 40.520283,139.45385 4.536084,-0.20066 c 2.127403,1.21354 2.755408,3.29746 3.251525,5.45794 l -0.722559,2.04673 c 0.916266,0.67767 0.715083,1.38177 0.762701,2.46811 -1.929069,-1.55217 -4.494203,-1.22396 -6.703761,-3.47141 0.207235,-1.07018 -0.0097,-2.14037 -0.16057,-3.21055 -0.444066,-1.08788 -1.344921,-2.39067 -0.96342,-3.09016 z"
       id="path13"
       sodipodiNodetypes="cccccccc" /><path
       style="fill:#3bcffb;fill-opacity:0.996078;fill-rule:evenodd;stroke:#3bcffb;stroke-width:0.365001;stroke-linecap:round;stroke-linejoin:round;stroke-dasharray:none;stroke-opacity:0.996078;paint-order:stroke fill markers"
       d="m 33.61581,139.81504 c 1.431194,-0.68768 2.970501,-0.29458 4.455793,-0.44145 1.10534,1.29579 0.52049,3.98088 -0.361277,5.49806 -3.004266,0.75234 -4.430439,2.22328 -6.362555,3.51155 0.709816,-2.95829 1.64904,-7.01441 2.268039,-8.56816 z"
       id="path14"
       sodipodiNodetypes="ccccc" /><path
       style="fill:#3bcffb;fill-opacity:0.996078;fill-rule:evenodd;stroke:#3bcffb;stroke-width:0.365001;stroke-linecap:round;stroke-linejoin:round;stroke-dasharray:none;stroke-opacity:0.996078;paint-order:stroke fill markers"
       d="m 25.185928,139.05253 c 2.020495,0.2625 4.040991,0.32606 6.061487,0.16053 -0.174455,1.05943 -0.856997,1.92359 -1.565549,2.92963 -0.664553,1.30612 -0.894582,2.25023 -1.264483,3.31088 -0.929963,0.70638 -1.699357,0.66248 -2.62932,0.60198 l -0.863061,-2.40791 c -0.07481,-0.81444 -0.295372,-1.7442 -0.622204,-2.50824 0.343672,-0.57242 0.646369,-1.24724 0.88313,-2.08687 z"
       id="path15"
       sodipodiNodetypes="cccccccc" /><path
       style="display:inline;fill:#ffffff;fill-opacity:0.996078;fill-rule:evenodd;stroke:#ffffff;stroke-width:0.365001;stroke-linecap:round;stroke-linejoin:round;stroke-dasharray:none;stroke-opacity:0.996078;paint-order:stroke fill markers"
       d="m 36.352964,117.91453 c -0.787823,0.7034 -0.712572,1.21116 -0.834921,1.75596 -0.116592,0.84451 0.295398,2.4635 1.589549,2.47204 0.736714,-0.0284 1.30444,-1.24582 1.192167,-2.81257 -0.173168,-1.22439 -0.921143,-2.02736 -1.946795,-1.41543 z"
       id="path2"
       sodipodiNodetypes="ccccc" /></g></svg>
